<svg xmlns="http://www.w3.org/2000/svg" version="1.1" xmlns:xlink="http://www.w3.org/1999/xlink" xmlns:svgjs="http://svgjs.dev/svgjs" width="2000" height="1500" viewBox="0 0 2000 1500"><rect width="2000" height="1500" fill="#fbeaab"></rect><g transform="matrix(0.75,0,0,0.75,249.090909090909,589.8180640053937)"><svg viewBox="0 0 396 85" data-background-color="#fbeaab" preserveAspectRatio="xMidYMid meet" height="429" width="2000" xmlns="http://www.w3.org/2000/svg" xmlns:xlink="http://www.w3.org/1999/xlink"><g id="tight-bounds" transform="matrix(1,0,0,1,0.2400000000000091,-0.18309383203873608)"><svg viewBox="0 0 395.52 85.36618766407746" height="85.36618766407746" width="395.52"><g><svg viewBox="0 0 534.0684053370592 115.26947743592734" height="85.36618766407746" width="395.52"><g transform="matrix(1,0,0,1,0,32.98279622790555)"><svg viewBox="0 0 395.5199999999999 49.30388498011624" height="49.30388498011624" width="395.5199999999999"><g id="textblocktransform"><svg viewBox="0 0 395.5199999999999 49.30388498011624" height="49.30388498011624" width="395.5199999999999" id="textblock"><g><svg viewBox="0 0 395.5199999999999 49.30388498011624" height="49.30388498011624" width="395.5199999999999"><g transform="matrix(1,0,0,1,0,0)"><svg width="395.5199999999999" viewBox="3.759999990463257 -38.18000030517578 320.1999816894531 39.790000915527344" height="49.30388498011624" data-palette-color="#454545"><g class="wordmark-text-0" data-fill-palette-color="primary" id="text-0"><path d="M33.94-0.15L33.94-0.15 24.22 0.1Q24.12-3.08 24.07-6.2 24.02-9.33 23.93-12.5L23.93-12.5 14.75-12.06Q14.7-11.57 14.7-11.11 14.7-10.64 14.7-10.21L14.7-10.21Q14.7-7.47 14.92-4.76 15.14-2.05 15.38 0.63L15.38 0.63Q14.4 0.68 13.4 0.71 12.4 0.73 11.43 0.73L11.43 0.73Q9.52 0.73 7.59 0.66 5.66 0.59 3.76 0.59L3.76 0.59Q3.86-3.96 4-8.4 4.15-12.84 4.25-17.38L4.25-17.38Q4.35-21.83 4.37-26.17 4.39-30.52 4.44-34.91L4.44-34.91 12.6-34.91Q12.99-31.25 13.13-27.61 13.28-23.97 13.57-20.31L13.57-20.31Q15.92-20.36 18.21-20.36 20.51-20.36 22.9-20.41L22.9-20.41 23.39-36.23Q24.07-36.28 24.73-36.28 25.39-36.28 26.07-36.28L26.07-36.28Q28.03-36.28 29.91-36.18 31.79-36.08 33.69-35.74L33.69-35.74Q33.94-26.81 33.89-17.94 33.84-9.08 33.94-0.15ZM81.64-20.85L81.64-20.85Q81.64-20.21 81.64-19.6 81.64-18.99 81.59-18.41L81.59-18.41Q81.54-17.92 81.47-16.7 81.39-15.48 81.27-13.89 81.15-12.3 80.98-10.55 80.81-8.79 80.59-7.3 80.37-5.81 80.12-4.74 79.88-3.66 79.64-3.42L79.64-3.42Q78.17-1.95 76.14-1.25 74.12-0.54 71.92-0.29 69.72-0.05 67.53-0.1 65.33-0.15 63.43-0.15L63.43-0.15Q62.79-0.15 61.28-0.17 59.76-0.2 57.83-0.24 55.91-0.29 53.81-0.42 51.71-0.54 49.88-0.76 48.04-0.98 46.7-1.29 45.36-1.61 45.02-2.1L45.02-2.1Q44.63-2.64 44.33-3.27 44.04-3.91 43.8-4.49L43.8-4.49Q43.16-6.1 42.62-7.93 42.09-9.77 41.72-11.69 41.35-13.62 41.14-15.53 40.92-17.43 40.92-19.14L40.92-19.14Q40.92-20.07 41.06-21.56 41.21-23.05 41.45-24.78 41.7-26.51 42.04-28.32 42.38-30.13 42.8-31.69 43.21-33.25 43.7-34.4 44.19-35.55 44.77-35.94L44.77-35.94Q45.26-36.28 46.58-36.57 47.9-36.87 49.66-37.08 51.41-37.3 53.42-37.48 55.42-37.65 57.22-37.77 59.03-37.89 60.5-37.94 61.96-37.99 62.64-37.99L62.64-37.99Q63.57-37.99 65.16-37.89 66.75-37.79 68.6-37.57 70.46-37.35 72.36-37.04 74.27-36.72 75.9-36.28 77.54-35.84 78.71-35.3 79.88-34.77 80.17-34.13L80.17-34.13Q80.42-33.59 80.64-32.59 80.86-31.59 81-30.32 81.15-29.05 81.27-27.64 81.39-26.22 81.47-24.93 81.54-23.63 81.59-22.56 81.64-21.48 81.64-20.85ZM72.9-19.24L72.9-19.24Q72.9-20.21 72.8-21.31 72.7-22.41 72.17-23.24L72.17-23.24Q71.77-23.83 70.29-24.17 68.8-24.51 67.01-24.66 65.23-24.8 63.57-24.83 61.91-24.85 61.23-24.85L61.23-24.85Q60.69-24.85 59.35-24.76 58.01-24.66 56.52-24.44 55.03-24.22 53.76-23.9 52.49-23.58 52.19-23.14L52.19-23.14Q51.9-22.8 51.73-21.85 51.56-20.9 51.44-19.8 51.32-18.7 51.27-17.7 51.22-16.7 51.22-16.26L51.22-16.26Q51.22-15.87 51.24-15.09 51.27-14.31 51.36-13.48 51.46-12.65 51.58-11.91 51.71-11.18 51.95-10.84L51.95-10.84Q52.1-10.6 52.83-10.4 53.56-10.21 54.61-10.03 55.66-9.86 56.83-9.77 58.01-9.67 59.1-9.59 60.2-9.52 61.06-9.5 61.91-9.47 62.25-9.47L62.25-9.47Q62.84-9.47 64.28-9.57 65.72-9.67 67.31-9.89 68.89-10.11 70.24-10.42 71.58-10.74 71.97-11.18L71.97-11.18Q72.26-11.52 72.46-12.62 72.65-13.72 72.75-15.01 72.85-16.31 72.87-17.5 72.9-18.7 72.9-19.24ZM126.17-15.72L126.17-15.72Q126.17-11.43 126.14-7.25 126.12-3.08 126.07 1.22L126.07 1.22Q123.04 1.07 120.06 1.07L120.06 1.07Q118.6 1.07 117.11 1.22 115.62 1.37 114.16 1.61L114.16 1.61Q112.3-2.44 110.44-6.42 108.59-10.4 106.73-14.45L106.73-14.45Q105.37-17.43 104.15-20.41 102.92-23.39 101.7-26.42L101.7-26.42Q101.26-19.82 100.8-13.31 100.34-6.79 100.04-0.2L100.04-0.2 89.5-0.49Q89.25-9.86 89.06-19.14 88.86-28.42 88.37-37.79L88.37-37.79 107.47-37.89Q108.44-35.45 109.3-32.98 110.15-30.52 110.93-27.98L110.93-27.98Q112.06-24.12 113.47-20.34 114.89-16.55 116.3-12.74L116.3-12.74Q116.25-18.85 116.08-24.9 115.91-30.96 115.82-37.11L115.82-37.11 125.68-35.94Q125.87-30.86 126.02-25.83 126.17-20.8 126.17-15.72ZM160.69-36.23L161.22-29.74Q156.44-29.49 151.73-29.22 147.01-28.96 142.23-28.56L142.23-28.56 142.13-24.71 154.73-25.44Q154.97-23.78 155.1-22.17 155.22-20.56 155.22-18.9L155.22-18.9Q155.22-18.21 155.19-17.48 155.17-16.75 155.17-16.06L155.17-16.06 143.45-13.96 144.18-7.91Q147.89-8.15 151.58-8.62 155.27-9.08 159.03-9.42L159.03-9.42Q159.37-6.98 159.71-4.52 160.05-2.05 160.69 0.29L160.69 0.29Q153.75 0.24 146.92 0.32 140.08 0.39 133.15 0.39L133.15 0.39Q133.29-5.32 133.49-10.99 133.68-16.65 133.68-22.41L133.68-22.41 133.68-23.34Q133.68-26.66 133.59-29.96 133.49-33.25 133.39-36.62L133.39-36.62Q137.25-36.57 141.08-36.6 144.91-36.62 148.82-36.62L148.82-36.62Q151.8-36.62 154.75-36.5 157.71-36.38 160.69-36.23L160.69-36.23ZM199.21-12.16L199.21-12.16Q199.21-10.4 198.67-8.47 198.13-6.54 197.11-4.86 196.08-3.17 194.59-1.93 193.11-0.68 191.25-0.29L191.25-0.29Q190.52-0.15 189.52-0.05 188.52 0.05 187.44 0.1 186.37 0.15 185.32 0.2 184.27 0.24 183.53 0.24L183.53 0.24Q179.34 0.44 175.14 0.46 170.94 0.49 166.69 0.49L166.69 0.49Q166.49-1.51 166.32-3.47 166.15-5.42 165.86-7.47L165.86-7.47Q169.23-7.62 172.57-7.79 175.92-7.96 179.29-8.2L179.29-8.2Q180.02-8.25 180.92-8.25 181.83-8.25 182.78-8.3 183.73-8.35 184.63-8.42 185.54-8.5 186.22-8.64L186.22-8.64Q186.51-8.69 186.93-8.81 187.34-8.94 187.69-9.16 188.03-9.38 188.27-9.67 188.52-9.96 188.52-10.4L188.52-10.4Q188.52-11.43 188.3-12.67 188.08-13.92 187.98-14.89L187.98-14.89Q184.32-14.55 180.63-14.23 176.94-13.92 173.23-13.92L173.23-13.92Q170.69-13.92 169.18-15.36 167.67-16.8 166.98-19.14L166.98-19.14Q166.84-19.68 166.71-20.43 166.59-21.19 166.52-22 166.45-22.8 166.4-23.58 166.35-24.37 166.3-24.9L166.3-24.9Q166.05-28.13 165.93-31.25 165.81-34.38 165.71-37.6L165.71-37.6Q168.06-37.35 170.42-37.16 172.79-36.96 175.14-36.82L175.14-36.82Q175.14-34.52 175.26-31.96 175.38-29.39 175.87-27.2L175.87-27.2Q176.11-26.03 176.8-25.17 177.48-24.32 178.43-23.75 179.38-23.19 180.48-22.92 181.58-22.66 182.7-22.66L182.7-22.66Q184.02-22.66 185.34-22.92 186.66-23.19 187.88-23.58L187.88-23.58Q187.69-27.25 187.56-30.81 187.44-34.38 187.1-37.99L187.1-37.99Q188.56-38.04 190.03-38.11 191.49-38.18 192.96-38.18L192.96-38.18Q195.25-38.18 197.6-37.74L197.6-37.74Q197.6-35.64 197.67-33.54 197.74-31.45 197.84-29.35L197.84-29.35Q197.94-28.37 198.01-27.37 198.09-26.37 198.13-25.39L198.13-25.39Q198.33-22.07 198.77-18.77 199.21-15.48 199.21-12.16ZM236.36-0.15L236.36-0.15 226.65 0.1Q226.55-3.08 226.5-6.2 226.45-9.33 226.35-12.5L226.35-12.5 217.18-12.06Q217.13-11.57 217.13-11.11 217.13-10.64 217.13-10.21L217.13-10.21Q217.13-7.47 217.35-4.76 217.57-2.05 217.81 0.63L217.81 0.63Q216.83 0.68 215.83 0.71 214.83 0.73 213.85 0.73L213.85 0.73Q211.95 0.73 210.02 0.66 208.09 0.59 206.19 0.59L206.19 0.59Q206.29-3.96 206.43-8.4 206.58-12.84 206.68-17.38L206.68-17.38Q206.77-21.83 206.8-26.17 206.82-30.52 206.87-34.91L206.87-34.91 215.03-34.91Q215.42-31.25 215.56-27.61 215.71-23.97 216-20.31L216-20.31Q218.35-20.36 220.64-20.36 222.94-20.36 225.33-20.41L225.33-20.41 225.82-36.23Q226.5-36.28 227.16-36.28 227.82-36.28 228.5-36.28L228.5-36.28Q230.46-36.28 232.34-36.18 234.22-36.08 236.12-35.74L236.12-35.74Q236.36-26.81 236.32-17.94 236.27-9.08 236.36-0.15ZM280.31-16.11L280.31-16.11Q280.31-13.33 280.19-10.6 280.06-7.86 279.67-5.08L279.67-5.08Q278.89-4.49 278.11-3.98 277.33-3.47 276.5-2.88L276.5-2.88Q275.82-2.44 275.01-1.88 274.2-1.32 273.32-0.78 272.45-0.24 271.54 0.17 270.64 0.59 269.86 0.73L269.86 0.73Q269.13 0.93 267.9 0.9 266.68 0.88 265.85 0.88L265.85 0.88Q263.8 0.98 261.75 1.03 259.7 1.07 257.55 1.07L257.55 1.07Q256.58 1.07 255.31 1.1 254.04 1.12 253.01 0.88L253.01 0.88Q252.72 0.83 252.04 0.42 251.35 0 250.5-0.61 249.64-1.22 248.72-1.93 247.79-2.64 246.93-3.3 246.08-3.96 245.47-4.47 244.86-4.98 244.61-5.18L244.61-5.18Q244.37-7.76 244.25-10.33 244.13-12.89 244.13-15.48L244.13-15.48Q244.13-20.51 244.49-25.44 244.86-30.37 245.3-35.35L245.3-35.35 255.36-35.6Q254.87-32.47 254.67-28.98 254.48-25.49 254.48-22.27L254.48-22.27Q254.48-21.73 254.53-20.39 254.57-19.04 254.72-17.53 254.87-16.02 255.09-14.75 255.31-13.48 255.65-13.09L255.65-13.09Q255.8-12.94 256.41-12.82 257.02-12.7 257.87-12.6 258.73-12.5 259.7-12.45 260.68-12.4 261.56-12.38 262.44-12.35 263.12-12.33 263.8-12.3 264.1-12.3L264.1-12.3Q264.34-12.3 264.93-12.3 265.51-12.3 266.12-12.33 266.73-12.35 267.27-12.4 267.81-12.45 268-12.6L268-12.6Q268.59-12.99 268.88-14.5 269.17-16.02 269.32-17.82 269.47-19.63 269.47-21.29 269.47-22.95 269.47-23.68L269.47-23.68Q269.47-24.8 269.49-25.93 269.52-27.05 269.52-28.17L269.52-28.17Q269.52-30.47 269.47-32.69 269.42-34.91 269.32-37.21L269.32-37.21Q270.35-37.11 271.35-37.08 272.35-37.06 273.37-37.06L273.37-37.06Q274.59-37.06 275.79-37.11 276.99-37.16 278.16-37.4L278.16-37.4Q279.18-32.18 279.75-26.83 280.31-21.48 280.31-16.11ZM323.96-24.17L323.96-24.17Q323.96-23.34 323.86-22.61 323.76-21.88 323.52-21.09L323.52-21.09Q323.22-20.26 322.39-19.51 321.56-18.75 320.54-18.09 319.51-17.43 318.44-16.97 317.37-16.5 316.63-16.26L316.63-16.26Q316.88-16.21 317.61-16.09 318.34-15.97 319.15-15.77 319.95-15.58 320.64-15.31 321.32-15.04 321.52-14.75L321.52-14.75Q321.86-14.16 322.08-13.31 322.3-12.45 322.39-11.5 322.49-10.55 322.54-9.64 322.59-8.74 322.59-8.06L322.59-8.06Q322.59-7.81 322.59-7.54 322.59-7.28 322.54-7.03L322.54-7.03Q322.44-6.54 321.86-5.74 321.27-4.93 320.49-4.1 319.71-3.27 318.95-2.56 318.2-1.86 317.8-1.56L317.8-1.56Q317.27-1.17 316.75-0.88 316.24-0.59 315.66-0.34L315.66-0.34Q315.22-0.15 313.78-0.05 312.34 0.05 310.72 0.12 309.11 0.2 307.7 0.22 306.28 0.24 305.79 0.24L305.79 0.24Q301.89 0.24 298.08 0.12 294.27 0 290.36-0.2L290.36-0.2Q290.46-3.66 290.51-7.1 290.56-10.55 290.56-14.06L290.56-14.06Q290.56-18.02 290.31-21.92 290.07-25.83 289.78-29.74L289.78-29.74 286.02-30.08Q285.77-32.03 285.65-33.91 285.53-35.79 285.33-37.7L285.33-37.7Q289.34-37.6 293.34-37.5 297.35-37.4 301.35-37.3L301.35-37.3Q303.06-37.26 305.7-36.99 308.33-36.72 311.09-36.28 313.85-35.84 316.32-35.21 318.78-34.57 320.2-33.79L320.2-33.79Q321.27-33.2 321.98-32.03 322.69-30.86 323.13-29.47 323.57-28.08 323.76-26.66 323.96-25.24 323.96-24.17ZM310.97-24.37L310.97-24.37Q310.97-24.85 310.92-25.61 310.87-26.37 310.72-27.15 310.58-27.93 310.33-28.61 310.09-29.3 309.75-29.74L309.75-29.74Q309.65-29.88 309.21-29.98 308.77-30.08 308.26-30.13 307.75-30.18 307.26-30.18 306.77-30.18 306.62-30.18L306.62-30.18Q304.18-30.18 301.79-29.91 299.4-29.64 297-29.25L297-29.25Q297.3-26.86 297.54-24.46 297.79-22.07 298.13-19.68L298.13-19.68Q298.71-19.68 300.42-19.78 302.13-19.87 304.06-20.02 305.99-20.17 307.65-20.39 309.31-20.61 309.8-20.9L309.8-20.9Q310.63-21.44 310.8-22.46 310.97-23.49 310.97-24.37ZM310.58-10.6L310.58-10.6Q310.58-11.33 310.38-12.08 310.19-12.84 309.6-13.33L309.6-13.33Q309.46-13.48 308.92-13.57 308.38-13.67 307.8-13.7 307.21-13.72 306.67-13.75 306.13-13.77 305.94-13.77L305.94-13.77Q303.84-13.77 301.79-13.55 299.74-13.33 297.69-13.09L297.69-13.09 298.47-6.88Q298.71-6.88 299.62-6.93 300.52-6.98 301.72-7.06 302.91-7.13 304.25-7.23 305.6-7.32 306.77-7.47 307.94-7.62 308.77-7.79 309.6-7.96 309.8-8.2L309.8-8.2Q310.24-8.74 310.41-9.33 310.58-9.91 310.58-10.6Z" fill="#454545" data-fill-palette-color="primary"></path></g></svg></g></svg></g></svg></g></svg></g><g transform="matrix(1,0,0,1,418.7989279011318,0)"><svg viewBox="0 0 115.26947743592734 115.26947743592734" height="115.26947743592734" width="115.26947743592734"><g><svg></svg></g><g id="icon-0"><svg viewBox="0 0 115.26947743592734 115.26947743592734" height="115.26947743592734" width="115.26947743592734"><g><path d="M0 57.635c0-31.831 25.804-57.635 57.635-57.635 31.831 0 57.635 25.804 57.634 57.635 0 31.831-25.804 57.635-57.634 57.634-31.831 0-57.635-25.804-57.635-57.634zM57.635 110.823c29.375 0 53.188-23.813 53.188-53.188 0-29.375-23.813-53.188-53.188-53.189-29.375 0-53.188 23.813-53.189 53.189 0 29.375 23.813 53.188 53.189 53.188z" data-fill-palette-color="accent" fill="#454545" stroke="transparent"></path></g><g transform="matrix(1,0,0,1,29.29780569821341,28.666769113639027)"><svg viewBox="0 0 56.673866039500524 57.93593920864929" height="57.93593920864929" width="56.673866039500524"><g><svg xmlns="http://www.w3.org/2000/svg" xmlns:xlink="http://www.w3.org/1999/xlink" version="1.1" x="0" y="0" viewBox="16.255556106567383 15.755210876464844 67.3888931274414 68.88957977294922" enable-background="new 0 0 100 100" xml:space="preserve" height="57.93593920864929" width="56.673866039500524" class="icon-s-0" data-fill-palette-color="accent" id="s-0"><g fill="#454545" data-fill-palette-color="accent"><g fill="#454545" data-fill-palette-color="accent"><path d="M38.7 50.3c-0.3-0.7-0.1-1.8 0.3-2.5l5.3-6.9c0.5-0.6 1.5-1.1 2.3-0.9l8.7 1.2c0.8 0.1 1.7 0.8 2 1.5l3.3 8.1c0.3 0.7 0.1 1.8-0.3 2.5l-5.3 6.9c-0.5 0.6-1.5 1.1-2.3 0.9L44 59.9c-0.8-0.1-1.7-0.8-2-1.5L38.7 50.3z" fill="#454545" data-fill-palette-color="accent"></path></g><g fill="#454545" data-fill-palette-color="accent"><path d="M58.1 63.9c-0.3-0.7-0.1-1.8 0.3-2.5l5.4-6.9c0.5-0.6 1.5-1.1 2.3-0.9l8.7 1.2c0.8 0.1 1.7 0.8 2 1.5l3.3 8.1c0.3 0.7 0.1 1.8-0.3 2.5l-5.3 6.9c-0.5 0.6-1.5 1.1-2.3 0.9l-8.7-1.2c-0.8-0.1-1.7-0.8-2-1.5L58.1 63.9z" fill="#454545" data-fill-palette-color="accent"></path></g><g fill="#454545" data-fill-palette-color="accent"><path d="M19.6 34.6c-0.3-0.7-0.2-1.8 0.3-2.5l5.3-6.9c0.5-0.6 1.5-1.1 2.3-0.9l8.7 1.2c0.8 0.1 1.7 0.8 2 1.5l3.3 8.1c0.3 0.7 0.1 1.8-0.3 2.5L36 44.3c-0.5 0.6-1.5 1.1-2.3 1L25 44.2c-0.8-0.1-1.7-0.8-2-1.5L19.6 34.6z" fill="#454545" data-fill-palette-color="accent"></path></g><g fill="#454545" data-fill-palette-color="accent"><path d="M42.1 26.1c-0.3-0.7-0.1-1.8 0.3-2.5l5.4-6.9c0.5-0.6 1.5-1.1 2.3-0.9l8.7 1.2c0.8 0.1 1.7 0.8 2 1.5l3.3 8.1c0.3 0.7 0.1 1.8-0.3 2.5l-5.4 6.9c-0.5 0.6-1.5 1.1-2.3 0.9l-8.7-1.2c-0.8-0.1-1.7-0.8-2-1.5L42.1 26.1z" fill="#454545" data-fill-palette-color="accent"></path></g><g fill="#454545" data-fill-palette-color="accent"><path d="M61.6 40c-0.3-0.7-0.1-1.8 0.3-2.5l5.3-6.9c0.5-0.6 1.5-1.1 2.3-0.9l8.7 1.2c0.8 0.1 1.7 0.8 2 1.5l3.3 8.1c0.3 0.7 0.1 1.8-0.3 2.5l-5.4 6.9c-0.5 0.6-1.5 1.1-2.3 0.9l-8.7-1.2c-0.8-0.1-1.7-0.8-2-1.5L61.6 40z" fill="#454545" data-fill-palette-color="accent"></path></g><g fill="#454545" data-fill-palette-color="accent"><path d="M16.4 58.5c-0.3-0.7-0.1-1.8 0.3-2.5l5.3-6.9c0.5-0.6 1.5-1.1 2.3-0.9l8.7 1.2c0.8 0.1 1.7 0.8 2 1.5l3.3 8.1c0.3 0.7 0.1 1.8-0.3 2.5l-5.3 6.9c-0.5 0.6-1.5 1.1-2.3 0.9l-8.7-1.2c-0.8-0.1-1.7-0.8-2-1.5L16.4 58.5z" fill="#454545" data-fill-palette-color="accent"></path></g><g fill="#454545" data-fill-palette-color="accent"><path d="M35.3 73.8c-0.3-0.7-0.1-1.8 0.3-2.5l5.4-6.9c0.5-0.6 1.5-1.1 2.3-0.9l8.7 1.2c0.8 0.1 1.7 0.8 2 1.5l3.3 8.1c0.3 0.7 0.1 1.8-0.3 2.5l-5.4 6.9c-0.5 0.6-1.5 1.1-2.3 0.9l-8.7-1.2c-0.8-0.1-1.7-0.8-2-1.5L35.3 73.8z" fill="#454545" data-fill-palette-color="accent"></path></g></g></svg></g></svg></g></svg></g></svg></g></svg></g><defs></defs></svg><rect width="395.52" height="85.36618766407746" fill="none" stroke="none" visibility="hidden"></rect></g></svg></g></svg>